<?xml version="1.0" encoding="UTF-8"?> <svg xmlns="http://www.w3.org/2000/svg" xmlns:xlink="http://www.w3.org/1999/xlink" version="1.1" id="Layer_2_00000165938894832493464870000012461775171531062401_" x="0px" y="0px" viewBox="0 0 32.7 44.6" style="enable-background:new 0 0 32.7 44.6;" xml:space="preserve"> <path d="M0,16.1C0.1,9.5,4.2,3.6,10.1,1.2c6.3-2.5,13.2-1.1,17.8,3.6c3.1,3.2,4.7,7,4.7,11.4c0,2-0.6,3.8-1.3,5.6 c-1.7,4.2-4,8-6.5,11.8c-2.4,3.5-4.9,6.9-7.5,10.2c-0.7,0.9-1.2,0.9-1.9,0c-4.5-5.7-8.8-11.6-12.3-18.1c-1.3-2.4-2.4-4.8-2.9-7.5 C0.1,17.5,0,16.8,0,16.1z M16.4,12.4c-0.1,0-0.1-0.1-0.1-0.2c-0.6-2.3-2.7-3.6-4.9-3.2c-2.2,0.4-3.7,2.4-3.5,4.7 c0.1,1.5,0.8,2.8,1.7,4.1c1.7,2.3,3.8,4.1,6.2,5.7c0.2,0.1,0.3,0.2,0.6,0.1c2.7-1.6,5.3-3.5,7.2-6.1c0.7-0.9,1.1-1.9,1.3-3 c0.5-3.1-2.1-5.7-5.1-5.1C18,9.7,16.9,10.8,16.4,12.4z"></path> </svg> 