<svg xmlns="http://www.w3.org/2000/svg" version="1.1" xmlns:xlink="http://www.w3.org/1999/xlink" width="512"
    height="512" x="0" y="0" viewBox="0 0 512 512" style="enable-background:new 0 0 512 512" xml:space="preserve"
    fill-rule="evenodd" class="">
    <g>
        <path fill="#ff8d05"
            d="M317.578 77.5H194.499a8.005 8.005 0 0 1-7.39-4.938 7.993 7.993 0 0 1 1.734-8.714l61.497-61.5c3.004-3 8.323-3 11.31 0l60.859 60.85a8 8 0 0 1-4.931 14.302z"
            opacity="1" data-original="#ff8d05" class=""></path>
        <path fill="#ffae06"
            d="M456.801 511.902H55.194a7.996 7.996 0 0 1-7.998-7.998v-258.44a7.999 7.999 0 0 1 13.052-6.198L213.037 363.79l37.909-30.903a7.995 7.995 0 0 1 10.108 0l37.913 30.903 152.79-124.524a8.026 8.026 0 0 1 8.485-1.025 7.999 7.999 0 0 1 4.567 7.224v258.444a8.006 8.006 0 0 1-8.008 7.993z"
            opacity="1" data-original="#ffae06"></path>
        <path fill="#ff8d05"
            d="M129.6 314.102a7.958 7.958 0 0 1-5.053-1.799L50.14 251.664a8 8 0 0 1-2.93-5.64 7.988 7.988 0 0 1 2.113-5.994l74.402-80.36a7.99 7.99 0 0 1 8.786-2.013 8.001 8.001 0 0 1 5.078 7.45v140.999a7.999 7.999 0 0 1-7.989 7.996zM382.4 314.102a8 8 0 0 1-7.998-7.998v-141a7.99 7.99 0 0 1 5.082-7.448 7.991 7.991 0 0 1 8.786 2.012l74.403 80.36a7.996 7.996 0 0 1 2.108 5.994 7.994 7.994 0 0 1-2.923 5.64l-74.404 60.64a7.973 7.973 0 0 1-5.054 1.8z"
            opacity="1" data-original="#ff8d05" class=""></path>
        <path fill="#f0f0f0"
            d="M213.036 382.101c-1.793 0-3.582-.6-5.053-1.799l-83.44-67.998a7.99 7.99 0 0 1-2.946-6.2V69.5a7.996 7.996 0 0 1 7.999-7.999H382.4a7.996 7.996 0 0 1 7.998 7.999v236.602a7.993 7.993 0 0 1-2.946 6.198l-83.438 68.006a7.996 7.996 0 0 1-10.106 0l-37.91-30.899-37.91 30.9a7.978 7.978 0 0 1-5.052 1.793z"
            opacity="1" data-original="#f0f0f0" class=""></path>
        <path fill="#656d78"
            d="M289.238 117.656h-66.475c-4.42 0-7.998-3.579-7.998-7.998s3.578-7.999 7.998-7.999h66.475c4.42 0 7.998 3.579 7.998 7.999s-3.582 7.998-7.998 7.998z"
            opacity="1" data-original="#656d78"></path>
        <path fill="#ff8d05"
            d="M455.373 511.902H56.622a7.997 7.997 0 0 1-5.05-1.794l-1.43-1.162a7.99 7.99 0 0 1-2.949-6.2 7.983 7.983 0 0 1 2.947-6.203l200.803-163.658a7.993 7.993 0 0 1 10.107 0l200.803 163.658a7.997 7.997 0 0 1 0 12.398l-1.43 1.162a7.979 7.979 0 0 1-5.05 1.799z"
            opacity="1" data-original="#ff8d05" class=""></path>
        <path fill="#ffc247" d="m97.166 458.216 19.628-15.997 278.408.001 19.626 15.996z" opacity="1"
            data-original="#ffc247"></path>
        <path fill="#ef5350"
            d="M255.998 300.792a7.98 7.98 0 0 1-5.657-2.347c-15.94-15.934-31.965-26.832-46.104-36.451-25.44-17.301-47.416-32.24-47.416-65.596 0-29.55 24.04-53.585 53.59-53.585 22.287 0 35.318 9.952 45.587 25.878 10.268-15.926 23.304-25.878 45.587-25.878 29.549 0 53.586 24.04 53.586 53.585 0 33.353-21.971 48.295-47.417 65.596-14.144 9.619-30.164 20.517-46.103 36.451a7.96 7.96 0 0 1-5.653 2.347z"
            opacity="1" data-original="#ef5350" class=""></path>
    </g>
</svg>