<?xml version="1.0" encoding="UTF-8"?> <svg xmlns="http://www.w3.org/2000/svg" xmlns:xlink="http://www.w3.org/1999/xlink" version="1.1" id="Layer_2_00000165938894832493464870000012461775171531062401_" x="0px" y="0px" viewBox="0 0 86.1 51.7" style="enable-background:new 0 0 86.1 51.7;" xml:space="preserve"> <g> <path d="M20.7,20.7c-0.2-0.6-0.3-1.2-0.5-1.8c-0.6-2.5-0.9-5.1-0.3-7.6c0.7-3.1,2.5-5.6,4.8-7.6c5.9-5.2,15.1-4.8,20.6,0.9 c2.4,2.5,4.1,5.4,5,8.7c0.7,2.3,1.1,4.7,1.2,7.1c0,0.6-0.4,1-0.9,1.1c-0.5,0-1-0.4-1-1c-0.1-1.2-0.2-2.5-0.4-3.7 c-0.2-1.3-0.6-2.7-1.1-4c-1.1-3.1-2.8-5.8-5.4-7.8C37.4,0.5,29.9,1.1,25.2,6c-1.8,1.8-3,3.9-3.4,6.5c-0.3,2,0,3.9,0.4,5.9 c0.3,1.2,0.6,2.3,1,3.4c0.1,0.4,0.2,0.8-0.2,1.2c-0.4,0.4-0.8,0.3-1.2,0.2c-2.1-0.7-4.3-1.3-6.6-1.5c-3.7-0.3-6.8,1.1-9.4,3.7 C0.9,30.2,0.6,37.8,5.1,43c1.5,1.8,3.4,3.1,5.5,4.2c2.4,1.2,5,1.8,7.7,2.2c4,0.5,8,0.4,11.9,0.1c6.4-0.4,12.7-0.9,19.1-0.9 c0.3,0,0.7,0,0.9,0.2c0.3,0.3,0.3,0.1,0.5-0.1c0.9-1.9,1.9-3.8,2.8-5.6c0.1-0.2,0.2-0.3,0.3-0.5c1.2,1.2,2.4,2.4,3.6,3.6 c-0.7,0.4-1.4,0.8-2.2,1.2c-1.4,0.8-2.9,1.5-4.3,2.3c-0.1,0.1-0.3,0.1-0.3,0.2c-0.2,0.6-0.7,0.7-1.3,0.7c-5.4,0-10.8,0.4-16.2,0.7 c-3.7,0.2-7.4,0.5-11.1,0.3c-3.5-0.1-6.9-0.5-10.2-1.8c-3.9-1.5-7.1-3.8-9.5-7.3c-3.8-5.8-2.9-13.9,2.2-18.7c2.1-2,4.5-3.6,7.5-4 c2.3-0.4,4.5-0.1,6.7,0.4C19.4,20.4,20,20.6,20.7,20.7z"></path> <path d="M85.9,15.4c-0.5-1.2-1.4-1.7-2.7-1.8c-0.4,0-0.7,0.1-1,0.2c-0.7,0.2-1.2,0.8-1.7,1.3c-0.1,0.1-0.2,0.2-0.2,0.3c0,0,0,0,0,0 c-1.2,1.2-2.5,2.5-3.7,3.7c0,0,0,0-0.1,0.1c0,0-0.1,0.1-0.1,0.1c-2.3,2.3-4.6,4.7-7,7c-4.7,4.7-9.5,9.5-14.2,14.2 c-0.3,0.3-0.3,0.4,0,0.7c1.2,1.2,2.4,2.3,3.5,3.5c0.3,0.3,0.4,0.3,0.7,0c6.5-6.5,12.9-12.9,19.4-19.4c0.3-0.3,0.4-0.2,0.6,0 c0.2,0.2,0.6,0.3,0.2,0.8c-2.3,2.3-4.6,4.6-6.9,6.8c-0.8,0.8-1.5,1.5-2.3,2.3c-0.3,0.3-0.4,0.7-0.2,1.1c0.2,0.4,0.5,0.5,0.8,0.6 c0.4,0,0.6-0.2,0.9-0.4c0.7-0.7,1.3-1.3,2-2c2.7-2.7,5.3-5.3,8-8c0.6-0.6,0.6-1.1,0-1.7c-0.4-0.4-0.7-0.8-1.1-1.1 c-0.2-0.2-0.2-0.3,0-0.4c0,0,0.1-0.1,0.1-0.1c0,0,0,0,0,0c1.2-1.2,2.4-2.4,3.6-3.6c0.1-0.1,0.2-0.2,0.2-0.2 c0.3-0.1,0.6-0.6,0.8-0.9C86.2,17.6,86.3,16.6,85.9,15.4z"></path> </g> </svg> 