<?xml version="1.0" encoding="UTF-8"?>
 <svg xmlns="http://www.w3.org/2000/svg"
    xmlns:xlink="http://www.w3.org/1999/xlink" version="1.1"
    id="Layer_2_00000165938894832493464870000012461775171531062401_" x="0px" y="0px" viewBox="0 0 89 79.8"
    style="enable-background:new 0 0 89 79.8;" xml:space="preserve">
    <style type="text/css">
        .st0 {
            fill-rule: evenodd;
            clip-rule: evenodd;
        }

        .st1 {
            clip-path: url(#SVGID_00000018932346819738472470000011043059198298309261_);
        }

        .st2 {
            clip-path: url(#SVGID_00000037650751118649277850000018181795784285934221_);
        }
    </style>
    <g id="Layer_1-2">
        <g>
            <g>
                <path class="st0"
                    d="M35.6,61.7c-1-3.1-2.3-5.8-2.8-8.6c-3-15.2,8.2-29.5,23.8-30c15.2-0.5,27,11.7,26.1,27 c-0.7,12.5-11.5,23-24.1,23.4c-6.2,0.2-11.8-1.6-16.7-5.4c-0.6-0.4-1-0.4-1.6-0.1c-1.7,0.9-3.4,1.7-5.2,2.5 c2.2,2.3,4.7,4.1,7.5,5.6c19.5,10.4,43.3-1.8,46.2-23.7c2.3-17.4-10.2-33.5-27.5-35.4C46.5,15.2,33,23.5,27.8,37.5 c-3.1,8.5-2.4,16.9,1.5,25.1c0.4,0.7,0.8,1,1.5,0.7C32.5,62.7,34.1,62.2,35.6,61.7L35.6,61.7z">
                </path>
                <g>
                    <defs>
                        <path id="SVGID_1_"
                            d="M35.6,61.7c-1-3.1-2.3-5.8-2.8-8.6c-3-15.2,8.2-29.5,23.8-30c15.2-0.5,27,11.7,26.1,27 c-0.7,12.5-11.5,23-24.1,23.4c-6.2,0.2-11.8-1.6-16.7-5.4c-0.6-0.4-1-0.4-1.6-0.1c-1.7,0.9-3.4,1.7-5.2,2.5 c2.2,2.3,4.7,4.1,7.5,5.6c19.5,10.4,43.3-1.8,46.2-23.7c2.3-17.4-10.2-33.5-27.5-35.4C46.5,15.2,33,23.5,27.8,37.5 c-3.1,8.5-2.4,16.9,1.5,25.1c0.4,0.7,0.8,1,1.5,0.7C32.5,62.7,34.1,62.2,35.6,61.7L35.6,61.7z">
                        </path>
                    </defs>
                    <use xlink:href="#SVGID_1_" style="overflow:visible;"></use>
                    <clipPath id="SVGID_00000111906756997741368880000007504025790783824005_">
                        <use xlink:href="#SVGID_1_" style="overflow:visible;"></use>
                    </clipPath>
                    <g style="clip-path:url(#SVGID_00000111906756997741368880000007504025790783824005_);">
                        <path
                            d="M58.6,17.6C72.7,19,85.3,27.7,87.3,42.4c0.3,1.9,0.4,3.9,0.4,5.8l-0.1-1.5c-0.1-1.9-0.5-3.9-0.9-5.7 c-1.2-5.1-3.8-10-7.6-13.6C73.6,22,66.1,18.9,58.6,17.6L58.6,17.6L58.6,17.6z">
                        </path>
                    </g>
                </g>
            </g>
            <g>
                <g>
                    <path
                        d="M47.7,28.1c-0.2-0.2-0.3-0.5-0.5-0.7c-0.1-0.2-0.3-0.3-0.5-0.6c-1.4,0.9-2.9,1.9-4.4,2.9c4.6,5.6,6.4,11.8,4.9,18.8 c-1.2,5.5-4.2,9.9-8.9,13c-9.7,6.4-22.5,4-29.1-5.3C2.3,46.5,4.5,31.4,17,24.8c-1.5-1-2.9-2-4.4-2.9c-0.3-0.2-1.1,0.2-1.6,0.5 c-4.7,3.4-8,7.9-9.8,13.5c-4.9,15.6,5.2,31.7,21.5,34.2c14.2,2.2,27.9-8,29.9-22.3C53.6,40.6,52,34,47.7,28.1L47.7,28.1z">
                    </path>
                    <g>
                        <path
                            d="M34,24.1c0.3,0.1,0.9,0.2,1.1,0c1.4-1,2.7-2.2,4.1-3.4c-3.4-1.9-6.9-2.9-10.7-3.2c-0.2,0-0.6,0.2-0.8,0.4 c-0.8,1.5-1.5,3-2.3,4.6c1.7,0.2,3.2,0.2,4.8,0.5C31.5,23.3,32.7,23.8,34,24.1z">
                        </path>
                        <g>
                            <defs>
                                <path id="SVGID_00000015326786408562456320000001632433411316496319_"
                                    d="M34,24.1c0.3,0.1,0.9,0.2,1.1,0 c1.4-1,2.7-2.2,4.1-3.4c-3.4-1.9-6.9-2.9-10.7-3.2c-0.2,0-0.6,0.2-0.8,0.4c-0.8,1.5-1.5,3-2.3,4.6c1.7,0.2,3.2,0.2,4.8,0.5 C31.5,23.3,32.7,23.8,34,24.1z">
                                </path>
                            </defs>
                            <use xlink:href="#SVGID_00000015326786408562456320000001632433411316496319_"
                                style="overflow:visible;"></use>
                            <clipPath id="SVGID_00000159463269848153956470000004780592912422551709_">
                                <use xlink:href="#SVGID_00000015326786408562456320000001632433411316496319_"
                                    style="overflow:visible;"></use>
                            </clipPath>
                            <g style="clip-path:url(#SVGID_00000159463269848153956470000004780592912422551709_);">
                                <path
                                    d="M49.3,44.1c0,12.7-10.3,23.1-23.1,23.1S3.2,56.9,3.2,44.1S13.5,21,26.2,21S49.3,31.4,49.3,44.1z">
                                </path>
                            </g>
                        </g>
                    </g>
                </g>
                <g>
                    <path class="st0"
                        d="M28.4,7.4c-1.6,0.4-3.1,0.9-4.7,1.2c-0.8,0.2-1.1,0.5-1.1,1.4c0,3.9-0.2,7.7-0.3,11.6c0,0.4,0,0.8,0,1.2 c0.1,0,0.1,0,0.2,0c2.6-5.2,5.2-10.4,7.9-15.9C29.6,7,29,7.2,28.4,7.4L28.4,7.4z">
                    </path>
                    <path class="st0"
                        d="M13.2,12.4c-0.4-0.8-0.8-0.9-1.6-0.6c-2.1,0.6-4.3,1.1-6.7,1.8c5.1,3.5,9.9,6.8,14.8,10.1 c0,0,0.1-0.1,0.2-0.1c-1.1-1.8-2.1-3.6-3.2-5.4C15.5,16.2,14.3,14.3,13.2,12.4L13.2,12.4z">
                    </path>
                    <path class="st0"
                        d="M20.2,20.3c0.1,0,0.2,0,0.3-0.1c0.4-3.6,0.7-7.2,1.1-11.1c-2.6,0.7-5.1,1.3-7.7,2 C16,14.3,18.1,17.3,20.2,20.3L20.2,20.3z">
                    </path>
                    <path class="st0"
                        d="M16.4,2c2,1.9,3.7,3.5,5.5,5.3C22.6,5,23.2,2.6,24,0C21.4,0.7,19.1,1.3,16.4,2L16.4,2z"></path>
                    <path class="st0"
                        d="M21.1,8.3c-1.9-1.8-3.7-3.4-5.5-5.1c-0.6,2-1.2,4.4-1.9,7C16.2,9.5,18.6,8.9,21.1,8.3L21.1,8.3z">
                    </path>
                    <path class="st0" d="M6.3,5.7C5.8,7.6,5.1,10,4.4,12.6c2.6-0.7,4.9-1.3,7.2-1.9C9.8,9,8,7.3,6.3,5.7z">
                    </path>
                    <path class="st0"
                        d="M14.7,2.4c-2.5,0.7-4.9,1.3-7.4,1.9c1.9,1.8,3.6,3.5,5.4,5.3C13.4,7.4,14,5,14.7,2.4z"></path>
                    <path class="st0"
                        d="M30.3,5.8c-1.9-1.8-3.7-3.5-5.5-5.2c-0.6,2.2-1.2,4.6-2,7.2C25.5,7.1,27.8,6.5,30.3,5.8L30.3,5.8z">
                    </path>
                </g>
            </g>
        </g>
    </g>
</svg>