<?xml version="1.0" encoding="UTF-8"?>
<svg xmlns="http://www.w3.org/2000/svg" id="Layer_2" data-name="Layer 2" viewBox="0 0 55.25 26.88">
    <defs>
        <style>
            .cls-1 {
                fill: #333;
            }
        </style>
    </defs>
    <g id="Layer_1-2" data-name="Layer 1">
        <path class="cls-1"
            d="m28.26,26.88c-2.26,0-4.38-.88-5.98-2.48L.44,2.56C-.15,1.98-.15,1.03.44.44S1.97-.15,2.56.44l21.84,21.84c1.05,1.05,2.46,1.64,3.95,1.6,1.49-.02,2.88-.63,3.9-1.72L52.66.47c.57-.6,1.52-.63,2.12-.06.6.57.63,1.52.06,2.12l-20.41,21.69c-1.58,1.68-3.73,2.63-6.04,2.66-.04,0-.09,0-.13,0Z">
        </path>
    </g>
</svg>