<svg xmlns="http://www.w3.org/2000/svg" version="1.1" xmlns:xlink="http://www.w3.org/1999/xlink" width="512"
    height="512" x="0" y="0" viewBox="0 0 512 512" style="enable-background:new 0 0 512 512" xml:space="preserve"
    class="">
    <g>
        <path fill-rule="evenodd"
            d="M231.75 345.988c0 13.522-10.977 24.499-24.499 24.499-13.524 0-24.499-10.975-24.499-24.499V166.016c0-13.526 10.971-24.504 24.499-24.504 13.525 0 24.499 10.98 24.499 24.504zm48.5-179.972c0-13.526 10.972-24.504 24.499-24.504s24.499 10.977 24.499 24.504v179.971c0 13.524-10.974 24.499-24.499 24.499-13.524 0-24.499-10.975-24.499-24.499zM256 468.498c117.171 0 212.5-95.325 212.5-212.496 0-117.175-95.33-212.501-212.5-212.501S43.5 138.827 43.5 256.002c0 117.17 95.329 212.496 212.5 212.496zM423.941 88.06C379.078 43.201 319.439 18.499 256 18.499S132.918 43.201 88.059 88.06c-44.86 44.86-69.558 104.503-69.558 167.942 0 63.434 24.698 123.078 69.557 167.937s104.502 69.562 167.941 69.562 123.078-24.703 167.941-69.562c44.859-44.859 69.557-104.502 69.557-167.937.002-63.439-24.696-123.082-69.556-167.942z"
            clip-rule="evenodd" fill="#000000" opacity="1" data-original="#000000" class=""></path>
    </g>
</svg>