<?xml version="1.0" encoding="UTF-8"?> <svg xmlns="http://www.w3.org/2000/svg" xmlns:xlink="http://www.w3.org/1999/xlink" version="1.1" id="Layer_2_00000016068783470177090690000004670458644025547933_" x="0px" y="0px" viewBox="0 0 82.6 85.6" style="enable-background:new 0 0 82.6 85.6;" xml:space="preserve"> <style type="text/css"> .st0{fill-rule:evenodd;clip-rule:evenodd;fill:#0C0C0C;} .st1{clip-path:url(#SVGID_00000180336259452661580060000013891558564576311692_);} .st2{fill:#0C0C0C;} .st3{clip-path:url(#SVGID_00000152222153345720990300000002699954296871402898_);} </style> <g id="Layer_1-2"> <g> <g> <g id="wine01"> <path class="st0" d="M0,76.7c0.9-0.7,1.8-0.8,2.8-0.7c1.3,0.2,2.5,0.5,3.8,0.7c2.2,0.3,3.7-0.4,4.8-2.9c1.2-2.7,2.2-5.4,3.1-8.2 c0.9-2.6,1.7-5.3,2.6-8c0.4-1.3,0.3-2.1-0.3-3.2c-1.9-3.1-3.2-6.8-3.5-10.7c-0.4-4.6,0.8-9,2.6-13.3c2.3-5.6,5.4-10.7,8.3-15.9 c0.3-0.6,0.9-1,1.4-1.5c5,1.8,10.1,3.6,15.1,5.3c0,0.7,0.2,1.4,0.1,2c-1,6-1.8,12.1-3.6,18c-1.4,4.6-3.4,8.9-6.8,12.2 c-2.6,2.5-5.6,4.1-8.7,5.3c-1.2,0.4-1.9,1.3-2.4,2.6c-1,2.7-2.1,5.4-3.1,8.1c-0.9,2.7-1.9,5.4-2.6,8.2c-0.6,2.4,0.1,4.1,1.9,5.1 c1.1,0.7,2.3,1.2,3.5,1.8c0.9,0.5,1.5,1.2,1.8,2.3C13.8,81.5,6.9,79.1,0,76.7L0,76.7z"></path> <g> <defs> <path id="SVGID_1_" d="M0,76.7c0.9-0.7,1.8-0.8,2.8-0.7c1.3,0.2,2.5,0.5,3.8,0.7c2.2,0.3,3.7-0.4,4.8-2.9 c1.2-2.7,2.2-5.4,3.1-8.2c0.9-2.6,1.7-5.3,2.6-8c0.4-1.3,0.3-2.1-0.3-3.2c-1.9-3.1-3.2-6.8-3.5-10.7c-0.4-4.6,0.8-9,2.6-13.3 c2.3-5.6,5.4-10.7,8.3-15.9c0.3-0.6,0.9-1,1.4-1.5c5,1.8,10.1,3.6,15.1,5.3c0,0.7,0.2,1.4,0.1,2c-1,6-1.8,12.1-3.6,18 c-1.4,4.6-3.4,8.9-6.8,12.2c-2.6,2.5-5.6,4.1-8.7,5.3c-1.2,0.4-1.9,1.3-2.4,2.6c-1,2.7-2.1,5.4-3.1,8.1 c-0.9,2.7-1.9,5.4-2.6,8.2c-0.6,2.4,0.1,4.1,1.9,5.1c1.1,0.7,2.3,1.2,3.5,1.8c0.9,0.5,1.5,1.2,1.8,2.3 C13.8,81.5,6.9,79.1,0,76.7L0,76.7z"></path> </defs> <use xlink:href="#SVGID_1_" style="overflow:visible;fill:#0C0C0C;"></use> <clipPath id="SVGID_00000153670999501682696070000006568265806413238940_"> <use xlink:href="#SVGID_1_" style="overflow:visible;"></use> </clipPath> <g style="clip-path:url(#SVGID_00000153670999501682696070000006568265806413238940_);"> <path class="st0" d="M13.3,29.5c0,0,4.6-1.4,11.6,4.4c7.4,6.1,11.4,2.9,16.1-4.4s-3.1,36.4-26.3,25.4 C1.7,48.5,13.3,29.5,13.3,29.5z"></path> <path class="st2" d="M25.9,16.1c-6.4,8.9-11.8,20.3-9.6,31.5c0.4,1.6,0.9,3.1,1.5,4.6l-0.1,0c-0.8-1.4-1.5-2.9-1.9-4.5 c-2.2-8,0.8-16.4,4.6-23.5c0.8-1.4,1.6-2.8,2.5-4.2S24.8,17.3,25.9,16.1L25.9,16.1L25.9,16.1z"></path> </g> </g> </g> <g id="wine02"> <path class="st0" d="M61.4,85.6c0.3-1.1,1-1.7,2-2.1c1.2-0.5,2.4-1,3.5-1.5c2-1,2.8-2.4,2.4-5.1c-0.5-2.9-1.3-5.7-2-8.5 c-0.7-2.7-1.6-5.4-2.3-8.1c-0.4-1.3-0.9-1.9-2.1-2.5c-3.3-1.5-6.4-3.8-8.9-6.9c-2.9-3.6-4.3-7.9-5.3-12.4 c-1.3-5.9-1.6-11.9-2-17.8c0-0.7,0.2-1.3,0.3-2c5.2-1.4,10.3-2.7,15.5-4.1c0.4,0.5,0.9,1,1.2,1.6c2.6,5.5,5.3,11,7.1,16.9 c1.4,4.6,2.2,9.2,1.2,13.9c-0.7,3.6-2.3,6.6-4.3,9.3c-0.8,1-0.8,2.1-0.5,3.5c0.7,2.8,1.2,5.6,2,8.5c0.7,2.8,1.5,5.5,2.4,8.2 c0.8,2.4,2.3,3.3,4.4,3.2c1.3-0.1,2.6-0.3,3.9-0.4c1-0.1,1.9,0.1,2.7,0.9C75.5,81.9,68.4,83.7,61.4,85.6L61.4,85.6z"></path> <g> <defs> <path id="SVGID_00000093865312379753195700000018272887342194935987_" d="M61.4,85.6c0.3-1.1,1-1.7,2-2.1 c1.2-0.5,2.4-1,3.5-1.5c2-1,2.8-2.4,2.4-5.1c-0.5-2.9-1.3-5.7-2-8.5c-0.7-2.7-1.6-5.4-2.3-8.1c-0.4-1.3-0.9-1.9-2.1-2.5 c-3.3-1.5-6.4-3.8-8.9-6.9c-2.9-3.6-4.3-7.9-5.3-12.4c-1.3-5.9-1.6-11.9-2-17.8c0-0.7,0.2-1.3,0.3-2 c5.2-1.4,10.3-2.7,15.5-4.1c0.4,0.5,0.9,1,1.2,1.6c2.6,5.5,5.3,11,7.1,16.9c1.4,4.6,2.2,9.2,1.2,13.9 c-0.7,3.6-2.3,6.6-4.3,9.3c-0.8,1-0.8,2.1-0.5,3.5c0.7,2.8,1.2,5.6,2,8.5c0.7,2.8,1.5,5.5,2.4,8.2c0.8,2.4,2.3,3.3,4.4,3.2 c1.3-0.1,2.6-0.3,3.9-0.4c1-0.1,1.9,0.1,2.7,0.9C75.5,81.9,68.4,83.7,61.4,85.6L61.4,85.6z"></path> </defs> <use xlink:href="#SVGID_00000093865312379753195700000018272887342194935987_" style="overflow:visible;fill:#0C0C0C;"></use> <clipPath id="SVGID_00000051365885554910819830000011199114784159583114_"> <use xlink:href="#SVGID_00000093865312379753195700000018272887342194935987_" style="overflow:visible;"></use> </clipPath> <g style="clip-path:url(#SVGID_00000051365885554910819830000011199114784159583114_);"> <path class="st0" d="M46.6,31.6c0,0,7.5,8.6,15.6,6.2c11.9-3.6,10.4-12.3,14.8-2c2.4,5.7-2.2,22.2-13.5,22.4 C52.2,58.3,44.8,40.8,46.6,31.6L46.6,31.6z"></path> <path class="st2" d="M47.9,21.5c0.5,7.5,2,20.1,7,25.9c0.4,0.4,0.9,0.8,1.4,1.2l0,0.1c-0.3-0.2-0.5-0.3-0.8-0.5 c-3.8-2.8-5.1-7.8-6-12.1c-0.5-2.4-0.8-4.8-1.1-7.2C48,26.4,47.9,23.9,47.9,21.5L47.9,21.5L47.9,21.5z"></path> </g> </g> </g> </g> <path class="st2" d="M49.7,1.3c-1.6-1.6-4.3-1.5-5.8,0c-2.6-2.7-7.5-1-7,3.1c0.1,1.1,1.1,2.3,1.6,2.9c1.3,1.3,5.4,5.1,5.4,5.1 c1.8-1.6,3.9-3.3,5.5-4.9C51.2,5.6,51.5,2.9,49.7,1.3L49.7,1.3z"></path> </g> </g> </svg> 